<?xml version="1.0" standalone="no"?>
<!DOCTYPE svg PUBLIC "-//W3C//DTD SVG 20010904//EN"
 "http://www.w3.org/TR/2001/REC-SVG-20010904/DTD/svg10.dtd">
<svg version="1.0" xmlns="http://www.w3.org/2000/svg"
 width="600.000000pt" height="600.000000pt" viewBox="0 0 600.000000 600.000000"
 preserveAspectRatio="xMidYMid meet">
<metadata>
Created by potrace 1.14, written by Peter Selinger 2001-2017
</metadata>
<g transform="translate(0.000000,600.000000) scale(0.100000,-0.100000)"
fill="#000000" stroke="none">
<path d="M0 3000 l0 -3000 3000 0 3000 0 0 3000 0 3000 -3000 0 -3000 0 0
-3000z m5073 1772 c44 -38 12 -93 -220 -382 -151 -188 -253 -310 -356 -425
-40 -44 -90 -100 -112 -125 -22 -25 -67 -74 -100 -110 -33 -36 -100 -110 -150
-165 -49 -55 -133 -145 -185 -200 -52 -55 -131 -138 -175 -185 -176 -188 -321
-330 -337 -330 -18 0 -300 275 -311 303 -7 18 80 107 338 348 44 41 118 110
165 154 132 124 320 297 370 341 24 21 71 64 105 95 62 58 241 214 324 282 25
21 57 48 71 60 62 54 242 198 310 248 188 139 202 144 263 91z m-1912 -1879
c81 -82 150 -157 153 -168 5 -15 -15 -40 -85 -107 -75 -73 -99 -90 -144 -104
-105 -30 -203 12 -270 113 -25 39 -29 55 -29 112 0 43 6 78 18 100 23 44 175
201 194 201 9 0 82 -66 163 -147z m-533 -359 c176 -80 246 -237 179 -401 -44
-109 -106 -184 -177 -215 -25 -10 -57 -31 -71 -44 -36 -35 -143 -58 -179 -38
-45 23 -280 269 -280 291 0 22 24 53 40 53 5 0 14 18 20 40 34 127 157 277
260 317 76 30 138 29 208 -3z m-549 -622 c54 -54 119 -115 144 -136 32 -26 47
-46 47 -62 0 -27 -36 -64 -98 -101 -40 -23 -50 -25 -119 -20 -63 5 -82 11
-123 39 -59 40 -90 84 -101 141 -13 71 3 113 67 178 32 33 64 59 72 59 7 0 57
-44 111 -98z"/>
</g>
</svg>
